<?xml version="1.0" encoding="utf-8"?>
<!-- Generator: Adobe Illustrator 21.1.0, SVG Export Plug-In . SVG Version: 6.00 Build 0)  -->
<svg version="1.1" id="Calque_1" xmlns="http://www.w3.org/2000/svg" xmlns:xlink="http://www.w3.org/1999/xlink" x="0px" y="0px"
	 viewBox="0 0 164.2 104.8" style="enable-background:new 0 0 164.2 104.8;" xml:space="preserve">
<style type="text/css">
	.st0{fill:#C2935B;}
</style>
<g id="Groupe_8" transform="translate(-1974.523 -1443.704)">
	<g id="Groupe_1" transform="translate(2035.007 1525.681)">
		<path id="Tracé_1" class="st0" d="M13.3,5.1c0.3,0,0.6-0.1,0.8-0.4c0.3-0.3,0.4-0.7,0.4-1.1c0-0.3-0.1-0.6-0.3-0.8
			c-0.2-0.2-0.5-0.4-0.8-0.4c-0.3,0-0.6,0.2-0.8,0.4c-0.2,0.3-0.4,0.7-0.4,1.1c0,0.3,0.1,0.6,0.3,0.8C12.7,4.9,13,5.1,13.3,5.1z"/>
		<path id="Tracé_2" class="st0" d="M36.4,10.1c-0.1-0.3-0.3-0.4-0.6-0.4c-0.2,0-0.4,0-0.5,0.2c-0.2,0.2-0.3,0.4-0.4,0.6
			c-0.3,0.9-0.8,1.7-1.3,2.4c-0.4,0.5-0.9,1-1.4,1.4L32,14.4c0.2-0.3,0.4-0.7,0.5-1c0.2-0.5,0.2-0.9,0.2-1.4c0-0.8-0.2-1.5-0.5-2.2
			c-0.5-0.9-1-1.8-1.6-2.7c0.3-0.4,0.5-1,0.5-1.5c0-0.3-0.1-0.6-0.3-0.8c-0.2-0.2-0.5-0.3-0.8-0.3c-0.4,0-0.9,0.2-1.2,0.5
			c-0.3,0.4-0.4,0.8-0.4,1.3c0,0.4,0.1,0.8,0.3,1.1c-0.1,0.2-0.2,0.6-0.4,1.1c-0.2,0.5-0.4,1-0.5,1.3c-0.1,0.4-0.2,0.6-0.3,0.7
			c0,0.1-0.1,0.2-0.1,0.3c-1,2.5-1.9,3.8-2.7,3.8c-0.3,0-0.6-0.1-0.8-0.3c-0.1-0.2-0.2-0.5-0.2-0.8c0-0.2,0-0.4,0.1-0.5
			c0-0.2,0.1-0.5,0.2-0.9s0.2-0.8,0.3-1.1c0.1-0.4,0.2-0.8,0.4-1.4C24.8,9,24.9,8.5,25,8.1c0.1-0.4,0.3-1,0.5-1.7s0.4-1.3,0.5-1.7
			c0.1-0.4,0.3-1,0.5-1.8s0.4-1.4,0.5-1.7c0-0.1,0-0.3,0-0.4c0-0.5-0.3-0.7-0.8-0.7c-0.4,0-0.7,0.3-0.8,0.8c-0.5,1.7-1,3.6-1.6,5.7
			c-0.5,1.6-0.8,2.8-1.1,3.8c0,0,0,0.1,0,0.1c-0.4,1.1-0.9,2.1-1.5,3.1c-0.5,0.7-1,1.1-1.4,1.1c-0.3,0-0.4-0.3-0.4-0.9
			c0-0.2,0-0.3,0-0.5c0-0.2,0.1-0.4,0.1-0.6c0-0.2,0.1-0.4,0.1-0.6s0.1-0.4,0.2-0.7s0.2-0.5,0.2-0.7s0.1-0.5,0.3-0.8
			s0.2-0.7,0.3-0.8s0.2-0.5,0.3-0.9s0.2-0.7,0.3-0.9c0.1-0.1,0.1-0.3,0.1-0.4c0-0.1,0-0.2-0.1-0.3c-0.1-0.1-0.3-0.2-0.5-0.1
			c-0.2,0-0.4,0.1-0.6,0.2c-0.7,0.4-1.4,0.7-2.2,0.9c0.2-0.5,0.3-1,0.3-1.5c0.1-0.5-0.2-0.9-0.7-1c-0.1,0-0.2,0-0.2,0
			c-0.5,0-0.9,0.2-1.2,0.5c-0.3,0.4-0.5,0.8-0.5,1.3c0,0.5,0.1,1,0.4,1.5c0,0.1-0.1,0.3-0.3,0.7s-0.3,0.7-0.4,1.1l-0.2,0.6
			c-0.4,1.1-0.9,2.1-1.5,3.1c-0.5,0.7-1,1.1-1.4,1.1c-0.3,0-0.5-0.3-0.5-0.9c0-0.7,0.1-1.4,0.3-2c0.2-0.8,0.6-2.3,1.2-4.5
			c0.1-0.3,0.1-0.6,0-0.8c-0.1-0.2-0.4-0.4-0.6-0.3c-0.2,0-0.4,0.1-0.5,0.2c-0.2,0.1-0.3,0.3-0.3,0.5C11.4,7.4,11.2,8.2,11,9
			c-0.2,0.6-0.3,1-0.4,1.3c0,0,0,0.1-0.1,0.1c-0.7,2.1-2.2,3.9-4.1,5.1l0.3-1.3l1.3-4.4c0.1-0.3,0.1-0.6,0-0.9
			C7.9,8.8,7.7,8.7,7.5,8.8C7.3,8.7,7.1,8.8,7,9C6.8,9.3,6.7,9.6,6.6,9.9c-0.4,1.2-0.9,2.4-1.6,3.5c-0.6,0.8-1.1,1.2-1.6,1.2
			c-0.3,0-0.5-0.1-0.7-0.3c-0.2-0.4-0.3-0.8-0.2-1.2c0-0.9,0.2-1.8,0.5-2.7c0.3-0.8,0.8-1.6,1.5-2.2c0.6-0.6,1.3-0.9,2.1-0.9
			c0.4,0,0.8,0.1,1.2,0.3c0.2,0.1,0.5,0.2,0.8,0.3c0.4,0.1,0.7-0.2,0.8-0.6c0-0.1,0-0.1,0-0.2c0-0.4-0.3-0.7-0.8-0.9
			C7.9,5.9,7.3,5.8,6.7,5.8C5.9,5.8,5.1,6,4.4,6.4C3.7,6.8,3,7.3,2.5,8c-0.5,0.7-1,1.5-1.3,2.3c-0.3,0.9-0.5,1.8-0.5,2.8
			c0,0.8,0.2,1.5,0.6,2.2c0.4,0.5,1,0.8,1.7,0.8c0.4,0,0.7-0.1,1.1-0.3c0.4-0.2,0.7-0.5,1-0.9c-0.1,0.4-0.2,0.8-0.4,1.5
			c-0.4,0.2-0.8,0.3-1,0.5s-0.6,0.3-1,0.5c-0.3,0.2-0.6,0.3-0.9,0.5c-0.3,0.2-0.5,0.4-0.7,0.6c-0.2,0.2-0.4,0.4-0.6,0.7
			c-0.2,0.2-0.3,0.5-0.4,0.8C0,20.2,0,20.5,0,20.8c0,0.6,0.2,1.1,0.6,1.5C1,22.7,1.5,22.8,2,22.8c0.4,0,0.8-0.1,1.1-0.3
			c0.3-0.2,0.6-0.4,0.9-0.7c0.3-0.4,0.5-0.7,0.7-1.2c0.2-0.5,0.4-1,0.6-1.5c0.2-0.5,0.4-1.1,0.6-1.8c1.6-0.7,3-1.8,4.1-3.2
			c0,0.4,0.2,0.8,0.4,1.2c0.3,0.4,0.8,0.7,1.4,0.6c1-0.1,1.9-0.6,2.5-1.3c0.9-1.1,1.7-2.4,2.2-3.8c0-0.1,0.1-0.2,0.1-0.3
			c0.3-0.8,0.6-1.5,0.7-2h0.2c0.6,0,1.1-0.1,1.7-0.3C19.1,8.6,19,8.8,19,8.9c-0.6,1.5-0.9,3.2-1,4.8c0,1.6,0.6,2.4,1.7,2.4
			c1-0.1,1.8-0.6,2.4-1.3c0.1-0.1,0.2-0.2,0.3-0.4c0.1,0.4,0.2,0.7,0.4,1c0.4,0.5,1,0.8,1.7,0.7c1.6,0,3.1-1.7,4.5-5.1
			c0-0.1,0-0.1,0-0.2c0.1-0.3,0.4-1,0.8-2.1c0.4,0.5,0.7,1.1,1,1.7c0.2,0.5,0.4,1.1,0.3,1.7c0,0.6-0.2,1.2-0.6,1.7
			c-0.4,0.5-0.7,0.8-1.1,0.8c-0.2,0-0.4-0.1-0.5-0.3c-0.1-0.1-0.3-0.2-0.5-0.3c-0.2,0-0.4,0.1-0.5,0.2c-0.1,0.2-0.2,0.4-0.2,0.6
			c0,0.3,0.2,0.6,0.7,0.9c0.6,0.3,1.2,0.4,1.8,0.4c0.6,0,1.2-0.1,1.7-0.2c0.6-0.2,1.1-0.4,1.6-0.8c0.6-0.4,1.1-1,1.5-1.6
			c0.5-0.8,1-1.7,1.3-2.6C36.5,10.7,36.5,10.4,36.4,10.1z M2.1,21.3c-0.4,0-0.6-0.2-0.6-0.7c0-0.5,0.2-0.9,0.6-1.1
			c0.6-0.5,1.3-0.9,2-1.2C3.4,20.3,2.7,21.3,2.1,21.3L2.1,21.3z"/>
	</g>
	<path id="Tracé_3" class="st0" d="M1994.5,1489.3l-2.9-12.2c0-0.1,0-0.1-0.1-0.2c0,0-0.1,0-0.1,0c-0.1,0-0.1,0.1-0.1,0.2
		l-2.8,12.1c-0.3,1.6-0.8,3.2-1.7,4.6c-0.6,0.8-1.6,1.3-2.6,1.3c-1.1,0.1-2.1-0.4-2.8-1.3c-0.9-1.5-1.5-3.1-1.8-4.8l-3.9-15
		c-0.3-0.7-0.2-1.4,0.2-2c0.4-0.5,1.1-0.7,1.7-0.7c0.4,0,0.7,0.1,1.1,0.3c0.3,0.2,0.5,0.5,0.6,0.8l4.7,18.5c0,0.1,0.1,0.1,0.1,0.1
		s0.1,0,0.1-0.1l3.6-14.2c0.2-1.1,0.7-2.1,1.5-3c1.3-1.1,3.1-1.1,4.4,0c0.7,0.9,1.2,1.9,1.4,3l3.6,14.2c0,0.1,0.1,0.1,0.1,0.1
		s0.1,0,0.1-0.1l4.7-18.3c0.1-0.8,0.9-1.4,1.8-1.4c0.6-0.1,1.3,0.2,1.6,0.7c0.3,0.6,0.4,1.3,0.2,1.9l-3.8,14.9
		c-0.3,1.7-1,3.4-1.9,4.9c-0.6,0.8-1.7,1.3-2.7,1.3c-1,0.1-2-0.4-2.7-1.2C1995.3,1492.5,1994.7,1490.9,1994.5,1489.3z"/>
	<path id="Tracé_4" class="st0" d="M2023.5,1471.4c2.4-0.1,4.7,0.8,6.3,2.6c1.5,1.9,2.3,4.4,2.2,6.8v12.1c0,0.6-0.1,1.1-0.5,1.5
		c-0.4,0.4-0.9,0.6-1.5,0.5c-0.6,0-1.1-0.2-1.5-0.5c-0.4-0.4-0.6-1-0.5-1.5v-11.3c0.1-1.7-0.4-3.4-1.3-4.8c-1-1.2-2.5-1.9-4-1.8
		c-1.4-0.1-2.8,0.4-3.9,1.2c-1,0.8-1.8,1.9-2.2,3.1c-0.5,1.4-0.7,2.9-0.7,4.4v9.2c0,0.6-0.1,1.1-0.5,1.5c-0.9,0.7-2.1,0.7-3,0
		c-0.4-0.4-0.5-1-0.5-1.5v-31.4c0-0.6,0.1-1.1,0.5-1.5c0.9-0.7,2.1-0.7,3,0c0.4,0.4,0.5,1,0.5,1.5v13.7
		C2017.5,1472.8,2020.4,1471.3,2023.5,1471.4z"/>
	<path id="Tracé_5" class="st0" d="M2048.7,1471.4c3.1-0.1,6.1,1.1,8.3,3.4c2.2,2.2,3.4,5.3,3.3,8.4c0,2.1-0.5,4.2-1.6,6.1
		c-3.3,5.6-10.5,7.5-16.1,4.2c-0.9-0.5-1.6-1.1-2.4-1.8c-2.3-2.2-3.5-5.3-3.4-8.5c-0.1-3.2,1.1-6.2,3.4-8.5
		C2042.5,1472.6,2045.6,1471.4,2048.7,1471.4z M2048.7,1491.6c2,0,4-0.9,5.3-2.4c1.4-1.6,2.2-3.8,2.1-5.9c0.1-2.2-0.7-4.3-2.1-5.9
		c-1.3-1.5-3.3-2.4-5.3-2.4c-2.1-0.1-4.1,0.8-5.5,2.3c-1.4,1.6-2.2,3.8-2.1,6c-0.1,2.2,0.7,4.4,2.2,6
		C2044.6,1490.8,2046.6,1491.6,2048.7,1491.6z"/>
	<path id="Tracé_6" class="st0" d="M2085.2,1475.6c-2-0.2-3.9,0.7-5.1,2.2c-1.2,1.8-1.8,3.9-1.6,6v9.2c0,0.6-0.1,1.1-0.5,1.5
		c-0.9,0.7-2.1,0.7-3,0c-0.4-0.4-0.5-1-0.5-1.5v-19.6c0-0.6,0.1-1.1,0.5-1.5c0.9-0.7,2.1-0.7,3,0c0.4,0.4,0.5,1,0.5,1.5v1.9
		c0.8-1.2,1.9-2.2,3.2-3c1.2-0.7,2.6-1,4-1c0.6,0,1.2,0.2,1.7,0.5c0.4,0.4,0.7,0.9,0.7,1.5C2088,1474.9,2087.1,1475.6,2085.2,1475.6
		z"/>
	<path id="Tracé_7" class="st0" d="M2100,1495.1c-2.4,0.1-4.7-0.8-6.3-2.6c-1.5-1.9-2.3-4.4-2.2-6.8v-12.1c0-0.6,0.1-1.1,0.5-1.5
		c0.4-0.4,0.9-0.6,1.5-0.5c0.6,0,1.1,0.2,1.5,0.5c0.4,0.4,0.6,1,0.5,1.5v11.3c-0.1,1.7,0.4,3.4,1.3,4.8c1,1.2,2.5,1.9,4,1.8
		c1.4,0.1,2.8-0.4,3.9-1.2c1-0.8,1.8-1.9,2.2-3.1c0.5-1.4,0.7-2.9,0.7-4.4v-9.2c0-0.6,0.1-1.1,0.5-1.5c0.9-0.7,2.1-0.7,3,0
		c0.4,0.4,0.5,1,0.5,1.5v19.6c0,0.6-0.1,1.1-0.5,1.5c-0.9,0.7-2.1,0.7-3,0c-0.4-0.4-0.5-1-0.5-1.5v-1.9
		C2106,1493.7,2103.1,1495.2,2100,1495.1z"/>
	<path id="Tracé_8" class="st0" d="M2130.2,1471.4c2.4-0.1,4.7,0.8,6.3,2.6c1.5,1.9,2.3,4.4,2.2,6.8v12.1c0,0.6-0.1,1.1-0.5,1.5
		c-0.4,0.4-0.9,0.6-1.5,0.5c-0.6,0-1.1-0.2-1.5-0.5c-0.4-0.4-0.6-1-0.5-1.5v-11.3c0.1-1.7-0.4-3.4-1.3-4.8c-1-1.2-2.5-1.9-4-1.8
		c-1.4-0.1-2.8,0.4-3.9,1.2c-1,0.8-1.8,1.9-2.2,3.1c-0.5,1.4-0.7,2.9-0.7,4.4v9.2c0,0.6-0.1,1.1-0.5,1.5c-0.9,0.7-2.1,0.7-3,0
		c-0.4-0.4-0.5-1-0.5-1.5v-19.6c0-0.6,0.1-1.1,0.5-1.5c0.9-0.7,2.1-0.7,3,0c0.4,0.4,0.5,1,0.5,1.5v1.9
		C2124.2,1472.8,2127.1,1471.3,2130.2,1471.4z"/>
	<path id="Tracé_9" class="st0" d="M1986,1529.4c0.2,0.8-0.3,1.6-1,1.8c-0.7,0.3-1.5,0.4-2.3,0.4c-2.8,0.2-5.3-1.8-5.5-4.6
		c0-0.3,0-0.6,0-0.9v-11.6h-1.1c-0.4,0-0.8-0.1-1.1-0.4c-0.6-0.6-0.6-1.5-0.1-2.1c0,0,0.1-0.1,0.1-0.1c0.3-0.3,0.7-0.4,1.1-0.4h1.1
		v-3.3c0-0.5,0.1-0.9,0.4-1.3c0.7-0.6,1.8-0.6,2.5,0c0.3,0.4,0.5,0.8,0.4,1.3v3.3h3.5c0.4,0,0.8,0.1,1.1,0.4
		c0.6,0.5,0.6,1.5,0.1,2.1c0,0-0.1,0.1-0.1,0.1c-0.3,0.3-0.7,0.4-1.1,0.4h-3.5v11.4c-0.1,0.7,0.2,1.4,0.7,1.9c0.6,0.4,1.2,0.7,2,0.6
		c0.1,0,0.3,0,0.6,0s0.5-0.1,0.6-0.1c0.7-0.2,1.4,0.2,1.5,0.9C1986,1529.2,1986,1529.3,1986,1529.4z"/>
	<path id="Tracé_10" class="st0" d="M1977.2,1512.3"/>
	<path id="Tracé_11" class="st0" d="M1986,1529.4c0.2,0.8-0.3,1.6-1,1.8c-0.7,0.3-1.5,0.4-2.3,0.4c-2.8,0.2-5.3-1.8-5.5-4.6
		c0-0.3,0-0.6,0-0.9v-11.6h-1.1c-0.4,0-0.8-0.1-1.1-0.4c-0.6-0.6-0.6-1.5-0.1-2.1c0,0,0.1-0.1,0.1-0.1c0.3-0.3,0.7-0.4,1.1-0.4h1.1
		v-3.3c0-0.5,0.1-0.9,0.4-1.3c0.7-0.6,1.8-0.6,2.5,0c0.3,0.4,0.5,0.8,0.4,1.3v3.3h3.5c0.4,0,0.8,0.1,1.1,0.4
		c0.6,0.5,0.6,1.5,0.1,2.1c0,0-0.1,0.1-0.1,0.1c-0.3,0.3-0.7,0.4-1.1,0.4h-3.5v11.4c-0.1,0.7,0.2,1.4,0.7,1.9c0.6,0.4,1.2,0.7,2,0.6
		c0.1,0,0.3,0,0.6,0s0.5-0.1,0.6-0.1c0.7-0.2,1.4,0.2,1.5,0.9C1986,1529.2,1986,1529.3,1986,1529.4z"/>
	<path id="Tracé_12" class="st0" d="M1977.2,1512.3"/>
	<path id="Tracé_13" class="st0" d="M1999.7,1511.5c2-0.1,4,0.7,5.3,2.2c1.3,1.6,2,3.7,1.9,5.8v10.3c0,0.5-0.1,0.9-0.4,1.3
		c-0.3,0.3-0.8,0.5-1.3,0.5c-0.5,0-0.9-0.1-1.3-0.5c-0.3-0.4-0.5-0.8-0.5-1.3v-9.6c0.1-1.4-0.3-2.9-1.1-4.1c-0.8-1-2.1-1.6-3.4-1.5
		c-1.2,0-2.3,0.3-3.3,1c-0.9,0.7-1.5,1.6-1.9,2.6c-0.4,1.2-0.6,2.5-0.6,3.8v7.8c0,0.5-0.1,0.9-0.4,1.3c-0.7,0.6-1.8,0.6-2.5,0
		c-0.3-0.4-0.5-0.8-0.4-1.3v-26.6c0-0.5,0.1-0.9,0.4-1.3c0.7-0.6,1.8-0.6,2.5,0c0.3,0.4,0.5,0.8,0.4,1.3v11.7
		C1994.7,1512.7,1997.1,1511.4,1999.7,1511.5z"/>
	<path id="Tracé_14" class="st0" d="M2020.5,1528.6c1.6,0,3.1-0.6,4.3-1.6c0.1,0,0.2-0.2,0.4-0.3c0.1-0.1,0.3-0.2,0.4-0.4
		c0.1-0.1,0.3-0.1,0.4-0.2c0.2-0.1,0.4-0.1,0.6-0.1c0.4,0,0.8,0.2,1.1,0.5c0.3,0.4,0.4,0.8,0.3,1.3c-0.2,0.6-0.5,1.1-1,1.5
		c-1.8,1.5-4.1,2.4-6.5,2.4c-2.5,0.1-5-0.9-6.8-2.8c-1.8-2-2.7-4.6-2.6-7.3c-0.1-2.7,0.9-5.3,2.7-7.2c1.8-1.9,4.3-2.9,6.9-2.8
		c1.3,0,2.5,0.2,3.7,0.8c1,0.4,1.9,1.1,2.5,2c0.6,0.8,1.1,1.6,1.4,2.5c0.3,0.9,0.5,1.8,0.5,2.7c0.1,0.8-0.2,1.6-0.7,2.2
		c-0.8,0.5-1.7,0.7-2.6,0.6h-10.8c-0.1,1.7,0.5,3.3,1.7,4.6C2017.4,1528,2018.9,1528.6,2020.5,1528.6z M2020.7,1514.5
		c-1.4,0-2.8,0.5-3.9,1.4c-1.1,0.9-1.8,2.1-2,3.5h10.4c0.1,0,0.2-0.1,0.2-0.2c0-1.3-0.5-2.5-1.4-3.4
		C2023.2,1514.9,2022,1514.5,2020.7,1514.5L2020.7,1514.5z"/>
	<path id="Tracé_15" class="st0" d="M2078.4,1511.5c2.6-0.1,5.2,1,7,2.9c1.9,1.9,2.9,4.5,2.8,7.1c0,1.8-0.4,3.6-1.3,5.2
		c-2.8,4.8-8.9,6.4-13.6,3.6c-0.7-0.4-1.4-0.9-2-1.5c-1.9-1.9-3-4.5-2.9-7.2c-0.1-2.7,1-5.3,2.9-7.2
		C2073.2,1512.4,2075.8,1511.4,2078.4,1511.5z M2078.4,1528.6c1.7,0,3.4-0.7,4.5-2.1c1.2-1.4,1.9-3.2,1.8-5c0.1-1.8-0.6-3.6-1.8-5
		c-1.1-1.3-2.8-2-4.5-2c-1.8-0.1-3.5,0.6-4.7,2c-1.2,1.4-1.9,3.2-1.8,5c-0.1,1.9,0.6,3.7,1.8,5.1
		C2075,1527.9,2076.7,1528.6,2078.4,1528.6L2078.4,1528.6z"/>
	<path id="Tracé_16" class="st0" d="M2101.9,1515c-1.7-0.1-3.3,0.6-4.3,1.8c-1,1.5-1.5,3.3-1.4,5.1v7.8c0,0.5-0.1,0.9-0.4,1.3
		c-0.7,0.6-1.8,0.6-2.5,0c-0.3-0.4-0.5-0.8-0.4-1.3v-16.6c0-0.5,0.1-0.9,0.4-1.3c0.7-0.6,1.8-0.6,2.5,0c0.3,0.4,0.5,0.8,0.4,1.3v1.7
		c0.7-1,1.6-1.9,2.7-2.5c1-0.6,2.2-0.9,3.4-0.9c0.5,0,1,0.1,1.4,0.4c0.4,0.3,0.6,0.8,0.6,1.3C2104.3,1514.4,2103.5,1515,2101.9,1515
		z"/>
	<path id="Tracé_17" class="st0" d="M2107.6,1503.1c0-0.5,0.1-0.9,0.4-1.3c0.7-0.6,1.8-0.6,2.5,0c0.3,0.4,0.5,0.8,0.4,1.3v22.7
		c-0.1,0.7,0.2,1.4,0.7,1.9c0.6,0.4,1.2,0.7,2,0.6c0.4,0,0.7,0,1.1-0.1c1-0.1,1.5,0.2,1.7,1c0.2,0.6,0,1.3-0.6,1.7
		c-0.8,0.4-1.7,0.6-2.7,0.6c-2.8,0.2-5.3-1.8-5.5-4.6c0-0.3,0-0.6,0-0.9L2107.6,1503.1z"/>
	<path id="Tracé_18" class="st0" d="M2127.8,1511.5c1.4,0,2.7,0.3,3.9,0.9c1.2,0.6,2.2,1.4,2.9,2.5v-27.7c0-0.5,0.1-0.9,0.4-1.3
		c0.3-0.3,0.8-0.5,1.3-0.5c0.7,0,1.3,0.1,1.9,0.5c0.3,0.4,0.5,0.8,0.4,1.3v42.7c0,0.5-0.1,0.9-0.4,1.3c-0.6,0.3-1.2,0.5-1.9,0.5
		c-0.5,0-0.9-0.1-1.3-0.5c-0.3-0.4-0.5-0.8-0.4-1.3v-1.6c-0.8,1.1-1.8,2-3,2.5c-1.2,0.6-2.5,0.9-3.9,0.9c-2.5,0.1-5-1-6.7-2.9
		c-3.4-4.2-3.4-10.2,0-14.4C2122.8,1512.5,2125.3,1511.4,2127.8,1511.5z M2128.3,1514.5c-1.7-0.1-3.4,0.7-4.5,2
		c-1.1,1.5-1.7,3.3-1.6,5.1c-0.1,1.8,0.5,3.6,1.6,5.1c1.1,1.3,2.8,2,4.5,1.9c1.7,0.1,3.4-0.6,4.6-1.8c1.2-1.4,1.8-3.2,1.7-5v-0.6
		c0.1-1.8-0.6-3.6-1.8-4.9C2131.7,1515,2130,1514.4,2128.3,1514.5L2128.3,1514.5z"/>
	<g id="Groupe_3" transform="translate(2021.968 1443.704)">
		<path id="Tracé_19" class="st0" d="M11.2,23.4c-2.6,0-5.1-0.5-7.5-1.4c-1.2-0.4-2.4-1-3.3-2c-0.2-0.2-0.3-0.5-0.4-0.8l0-0.1
			c-0.1-0.4,0.1-0.9,0.5-1.1v0L0.6,18c0.1-0.1,0.2-0.1,0.3-0.2c0.1-0.1,0.2-0.1,0.4-0.2l0,0c0.1-0.1,0.3-0.1,0.4-0.1l0,0
			c0.2-0.1,0.3-0.1,0.5-0.1c0.4-0.1,1-0.2,1.7-0.3c1.3-0.2,2.5-0.5,3.7-0.9L7.9,16L8,16.2c0.4,0.6,2.8,3.2,5.5,1.3
			c2.5-1.8,4.5-5.3,6.3-8.5c1-2,2.2-3.9,3.7-5.6c3-2.8,5.6-3.5,6.3-3.4l0.1,0l0,0.1c0.1,0.2,0.2,0.4,0.2,0.7l0.1,1
			c0,0.1,0.1,0.2,0.1,0.3l0.1,0.3c0,0.1,0.1,0.2,0.1,0.4c0,0.1,0.1,0.2,0.1,0.3v0c0,0.1,0.1,0.2,0.1,0.4c0,0.1,0.1,0.2,0.1,0.3
			c0,0.1,0.1,0.2,0.1,0.4l0,0c0,0.1,0,0.1,0.1,0.2c0,0.1,0.1,0.2,0.1,0.4l0,0.1c0,0,0,0.1,0,0.1c0,0.2,0.1,0.3,0.1,0.4
			c0,0.1,0,0.3,0.1,0.4c0,0.9-0.1,1.7-0.3,2.5c0,0.1-0.2,1.6-0.4,3.4c-0.4,3.5-1.1,8.8-1.3,10.3v0c0,0.2,0,0.3-0.1,0.4l0,0.1
			c-0.2,1.1-2.3,0.8-2.5,0.8l-0.2,0l0.2-12c-2.8,1.2-5.2,3.1-7,5.6c-0.2,0.3-0.3,0.5-0.5,0.7c-0.3,0.4-0.5,0.8-0.8,1.2
			c-0.1,0.2-0.2,0.3-0.3,0.5c-1,1.6-2.3,3.6-3.9,3.9C13.3,23.3,12.3,23.4,11.2,23.4z M0.4,19.1c0.1,0.2,0.2,0.5,0.3,0.7
			c0.9,0.9,1.9,1.5,3.1,1.8c3.9,1.4,7.4,1.8,10.2,1.1c1.4-0.3,2.6-2.2,3.6-3.8c0.1-0.2,0.2-0.3,0.3-0.5c0.3-0.4,0.5-0.8,0.8-1.2
			c0.2-0.2,0.3-0.4,0.5-0.7c1.8-2.7,4.4-4.7,7.4-5.9l0.3-0.1l-0.2,12.2c0.6,0.1,1.8,0.1,1.9-0.5c0,0,0,0,0-0.1c0-0.1,0-0.2,0.1-0.4
			v0c0.2-1.4,0.9-6.8,1.3-10.3c0.4-2.8,0.4-3.4,0.4-3.5l0,0c0.2-0.8,0.3-1.6,0.3-2.4c0-0.1,0-0.3-0.1-0.4c0-0.1-0.1-0.3-0.1-0.4
			c0,0,0-0.1,0-0.1l0-0.1c0-0.1-0.1-0.2-0.1-0.3c0-0.1,0-0.1-0.1-0.2l0,0c0-0.1-0.1-0.2-0.1-0.3c0-0.1-0.1-0.2-0.1-0.3
			c0-0.1-0.1-0.2-0.1-0.4v0c0-0.1-0.1-0.2-0.1-0.3c0-0.1-0.1-0.2-0.1-0.4L30,2.2l-0.1-0.3l-0.1-0.3c-0.1-0.2-0.1-1-0.2-1.1
			c-0.7,0-3.1,0.7-5.9,3.3c-1.4,1.7-2.7,3.5-3.6,5.5c-1.8,3.2-3.8,6.8-6.4,8.6c-2.8,2-5.3-0.5-5.9-1.3c-1.2,0.4-2.4,0.7-3.7,0.9
			c-0.7,0.1-1.3,0.2-1.7,0.3c-0.2,0-0.3,0.1-0.5,0.1h0c-0.1,0-0.3,0.1-0.4,0.1l0,0c-0.1,0-0.2,0.1-0.3,0.1c-0.1,0-0.2,0.1-0.2,0.1
			l0,0C0.4,18.6,0.4,18.7,0.4,19.1L0.4,19.1z"/>
		<path id="Tracé_20" class="st0" d="M11.4,22.3c-3.9,0-7.8-1-11.2-2.9l0.2-0.3c4,2.2,8.5,3.1,13,2.7c1.6-0.3,3.1-2.6,4.3-4.4
			c0.4-0.6,0.7-1.1,1-1.5c0.2-0.2,0.3-0.4,0.5-0.7c2-3.1,5-5.5,8.5-6.5c0.2-0.1,0.4-0.1,0.5-0.2c1.7-0.7,2.7-1,2.6-2.7
			c0-0.1,0-0.3-0.1-0.4c0-0.1,0-0.3-0.1-0.4c0,0,0-0.1,0-0.1l0-0.1c0-0.1-0.1-0.2-0.1-0.3c0-0.1,0-0.1,0-0.2l0,0
			c0-0.1-0.1-0.2-0.1-0.3c0-0.1-0.1-0.2-0.1-0.3c0-0.1-0.1-0.2-0.1-0.4v0c0-0.1-0.1-0.2-0.1-0.3c0-0.1-0.1-0.2-0.1-0.4L30,2.3
			c0-0.1-0.1-0.2-0.1-0.3l-0.1-0.3c-0.1-0.2-0.2-1.1-0.2-1.3l0.4-0.1C30,0.4,30,1.2,30.1,1.5l0.1,0.3c0,0.1,0.1,0.2,0.1,0.3l0.1,0.3
			c0,0.1,0.1,0.2,0.1,0.4c0,0.1,0.1,0.2,0.1,0.3v0c0,0.1,0.1,0.2,0.1,0.4l0.1,0.3c0,0.1,0.1,0.2,0.1,0.4l0,0c0,0.1,0,0.1,0.1,0.2
			c0,0.1,0.1,0.2,0.1,0.4l0,0.1c0,0,0,0.1,0,0.1c0,0.2,0.1,0.3,0.1,0.4c0,0.1,0,0.3,0.1,0.4c0.1,2-1.1,2.4-2.8,3.1L27.9,9
			c-3.5,1.1-6.4,3.3-8.3,6.4c-0.2,0.2-0.3,0.5-0.5,0.7c-0.3,0.4-0.7,1-1,1.5c-1.3,2-2.8,4.3-4.6,4.6C12.8,22.3,12.1,22.3,11.4,22.3z
			"/>
		<path id="Tracé_21" class="st0" d="M56.3,16.2c-0.1-0.1-0.2-0.2-0.4-0.3s-0.3-0.2-0.4-0.3l0.2-0.3c0.1,0.1,0.2,0.2,0.4,0.3
			s0.3,0.2,0.4,0.3L56.3,16.2z"/>
		<path id="Tracé_22" class="st0" d="M54.5,14.9l-0.3-0.2l-0.3-0.2l-0.1-0.1l-0.1,0l0.2-0.3l0.1,0l0.1,0.1l0.3,0.2l0.3,0.2
			L54.5,14.9z"/>
		<path id="Tracé_23" class="st0" d="M52.7,13.6l-0.4-0.3L51.9,13l0.2-0.3l0.4,0.3l0.4,0.3L52.7,13.6z"/>
		<path id="Tracé_24" class="st0" d="M50.9,12.3c-0.1-0.1-0.2-0.2-0.4-0.3c-0.2-0.1-0.3-0.2-0.4-0.3l0.2-0.3
			c0.1,0.1,0.3,0.2,0.4,0.3c0.1,0.1,0.3,0.2,0.4,0.3L50.9,12.3z"/>
		<path id="Tracé_25" class="st0" d="M49.1,11c-0.1-0.1-0.3-0.2-0.4-0.3c-0.1-0.1-0.2-0.2-0.3-0.3l0.2-0.3l0.3,0.3
			c0.2,0.1,0.3,0.3,0.4,0.3L49.1,11z"/>
		<path id="Tracé_26" class="st0" d="M47.3,9.6c-0.4-0.3-0.7-0.6-1-1c-0.6-1-0.9-4.1,1.1-5.8l0.2-0.2l0.1,0.2
			c0.7,1.2,1.5,2.4,2.4,3.5l-0.3,0.2c-0.8-1.1-1.6-2.2-2.3-3.4c-1.2,1.4-1.6,3.4-0.9,5.1c0.3,0.3,0.6,0.6,1,0.9L47.3,9.6z"/>
		<path id="Tracé_27" class="st0" d="M51.2,8.4l-0.3-0.3c-0.2-0.3-0.5-0.6-0.7-0.9L50.5,7c0.2,0.3,0.5,0.6,0.7,0.9
			c0.1,0.1,0.2,0.2,0.3,0.3L51.2,8.4z"/>
		<path id="Tracé_28" class="st0" d="M52.6,10.1c-0.2-0.3-0.7-0.8-1-1.1l0.3-0.3c0.3,0.3,0.7,0.8,1,1.1L52.6,10.1z"/>
		<path id="Tracé_29" class="st0" d="M54.3,11.8L54.3,11.8c-0.4-0.4-0.9-0.9-1.2-1.2l0.3-0.3c0.3,0.3,0.8,0.8,1.1,1.1l0.1,0.1
			L54.3,11.8z"/>
		<path id="Tracé_30" class="st0" d="M55.9,13.4c-0.5-0.4-0.9-0.8-1.1-1l0.3-0.3c0.3,0.3,0.6,0.6,1.1,1L55.9,13.4z"/>
		<path id="Tracé_31" class="st0" d="M57.5,14.8c-0.3-0.3-0.7-0.6-1.1-0.9l0.3-0.3c0.3,0.3,0.8,0.7,1.1,0.9L57.5,14.8z"/>
		<path id="Tracé_32" class="st0" d="M60.1,18.8l-0.1-0.1c0,0-1.1-0.8-2.6-1.8l0.2-0.3c1.2,0.8,2.2,1.5,2.5,1.7l1-0.8
			c-0.4-0.3-1.5-1-2.9-2.1l0.3-0.3c1,0.8,2,1.6,3.1,2.3l0.2,0.2L60.1,18.8z"/>
		<path id="Tracé_33" class="st0" d="M34.7,19.9c-0.3-1.6-0.2-3.1,0.3-4.7c0.1-0.4,0.2-0.8,0.2-1.3c0.1-1,0.1-2-0.1-2.9
			c-0.3-2-0.3-4-0.1-5.9l0-0.3L35.3,5c2.5,1.1,6.4,0.9,9,0.7c0.7,0,1.3-0.1,1.8-0.1V6c-0.4,0-1,0-1.7,0.1c-2.5,0.1-6.3,0.3-8.9-0.6
			c-0.2,1.9-0.2,3.7,0.1,5.6c0.2,1,0.2,2,0.1,3c-0.1,0.4-0.2,0.9-0.2,1.3c-0.4,1.5-0.5,3-0.3,4.5L34.7,19.9z"/>
		<path id="Tracé_34" class="st0" d="M67.9,18.5c-2.4-1.3-5.1-1.9-7.8-1.8l0-0.4c2.8-0.2,5.6,0.5,8,1.9L67.9,18.5z"/>
		<path id="Tracé_35" class="st0" d="M57.6,24.3c-0.2,0-0.5,0-0.7,0c-1.9-0.1-4.2-0.1-6.5-0.1h0c-2.6,0-5.3-0.1-7.8-0.2
			c-3.7-0.1-6.3-0.3-8.1-0.6l-0.1,0l0-0.1c0-0.1-0.9-2.4,0.5-3.6l0.1-0.1l0.1,0c0.8,0.3,9.4,0.6,15.4,0.7c2.4,0,4.7,0.1,6.6,0.2
			c2,0.1,5.5-0.3,10.6-2.2c0.1-0.1,0.2-0.1,0.3-0.1l0.1,0l0.1,0.1c1,0.8,1.6,2,1.4,3.3l0,0.1l-0.1,0C65.6,23.2,61.6,24.1,57.6,24.3z
			 M42.5,23.6c2.5,0.1,5.2,0.1,7.8,0.2h0c2.4,0,4.6,0.1,6.5,0.1c5.3,0.2,11.3-2.2,12.2-2.6c0.1-1-0.3-2.1-1.2-2.7l-0.2,0.1
			c-5.2,2-8.7,2.3-10.8,2.3c-2-0.1-4.2-0.1-6.6-0.2c-4.5-0.1-14-0.4-15.4-0.7c-1,0.9-0.5,2.5-0.4,2.9C36.3,23.3,38.9,23.4,42.5,23.6
			L42.5,23.6z"/>
		<path id="Tracé_36" class="st0" d="M58.1,24.1c-0.1-0.6-0.2-2.6-0.3-3.3v0l0.4,0v0c0.1,0.7,0.2,2.7,0.3,3.3L58.1,24.1z"/>
		<g id="Groupe_2" transform="translate(47.043 5.926)">
			<path id="Tracé_37" class="st0" d="M9.8,11.3C9.4,11.3,9,11,9,10.5c0-0.2,0.1-0.3,0.2-0.5l0,0c0.3-0.4,0.8-0.5,1.2-0.2
				c0.4,0.3,0.5,0.8,0.2,1.2C10.4,11.2,10.1,11.3,9.8,11.3z M9.8,10.1C9.8,10.1,9.8,10.1,9.8,10.1c-0.2,0-0.3,0.1-0.3,0.2l0,0
				c-0.1,0.2-0.1,0.5,0.1,0.6s0.5,0.1,0.6-0.1c0.1-0.2,0.1-0.5-0.1-0.6C10,10.1,9.9,10.1,9.8,10.1L9.8,10.1z"/>
			<path id="Tracé_38" class="st0" d="M8,10c-0.5,0-0.8-0.4-0.8-0.8c0-0.5,0.4-0.8,0.8-0.8c0.2,0,0.4,0.1,0.5,0.2
				C8.9,8.8,9,9.3,8.7,9.7C8.5,9.9,8.3,10,8,10z M8,8.8C8,8.8,8,8.8,8,8.8C7.9,8.8,7.8,8.9,7.7,9l0,0C7.6,9.1,7.6,9.4,7.8,9.6
				C8,9.7,8.3,9.6,8.4,9.5S8.5,9,8.3,8.9C8.2,8.8,8.1,8.8,8,8.8L8,8.8z"/>
			<path id="Tracé_39" class="st0" d="M6.2,8.7c-0.2,0-0.3-0.1-0.5-0.2C5.4,8.3,5.3,7.8,5.6,7.4l0,0C5.8,7.1,6.4,7,6.7,7.3
				C7.1,7.5,7.2,8,6.9,8.4C6.8,8.6,6.5,8.7,6.2,8.7z M5.9,7.7C5.7,7.8,5.8,8.1,6,8.3c0.2,0.1,0.5,0.1,0.6-0.1C6.7,8,6.7,7.7,6.5,7.6
				C6.4,7.5,6.3,7.5,6.2,7.5C6.1,7.5,6,7.6,5.9,7.7z"/>
			<path id="Tracé_40" class="st0" d="M4.4,7.4c-0.2,0-0.3-0.1-0.5-0.2C3.6,7,3.5,6.5,3.8,6.1l0,0C4,5.7,4.5,5.7,4.9,5.9
				s0.5,0.8,0.2,1.2C5,7.3,4.8,7.4,4.6,7.4C4.5,7.4,4.5,7.4,4.4,7.4z M4.1,6.4C3.9,6.5,4,6.8,4.2,7C4.4,7.1,4.6,7,4.8,6.9
				c0,0,0,0,0,0c0.1-0.2,0.1-0.5-0.1-0.6C4.5,6.1,4.2,6.2,4.1,6.4L4.1,6.4z"/>
			<path id="Tracé_41" class="st0" d="M2.6,6.1c-0.5,0-0.8-0.4-0.8-0.8s0.4-0.8,0.8-0.8s0.8,0.4,0.8,0.8c0,0.4-0.3,0.8-0.7,0.8
				C2.7,6.1,2.7,6.1,2.6,6.1z M2.6,4.9C2.6,4.9,2.6,4.9,2.6,4.9C2.5,4.9,2.4,5,2.3,5.1l0,0C2.2,5.2,2.2,5.5,2.4,5.7
				C2.6,5.8,2.9,5.7,3,5.6C3.1,5.4,3.1,5.1,2.9,5C2.8,4.9,2.7,4.9,2.6,4.9L2.6,4.9z"/>
			<path id="Tracé_42" class="st0" d="M0.8,4.8C0.4,4.8,0,4.5,0,4c0-0.2,0.1-0.3,0.2-0.5l0,0c0.3-0.4,0.8-0.5,1.2-0.2
				c0.4,0.3,0.5,0.8,0.2,1.2C1.4,4.7,1.2,4.8,1,4.8C0.9,4.8,0.9,4.8,0.8,4.8z M0.5,3.8C0.3,3.9,0.4,4.2,0.6,4.4
				c0.1,0.1,0.2,0.1,0.3,0.1c0.2,0,0.4-0.3,0.4-0.5c0-0.1-0.1-0.2-0.2-0.3C0.9,3.5,0.6,3.6,0.5,3.8L0.5,3.8z"/>
			<path id="Tracé_43" class="st0" d="M1.6,3.9L1.3,3.7l2-2.8L3.1,0.6L1,3.5L0.7,3.2L3.1,0l0.2,0.2c0.2,0.2,0.3,0.4,0.5,0.5
				l0.1,0.1L1.6,3.9z"/>
			<path id="Tracé_44" class="st0" d="M3.4,5.2L3.1,5l1.6-2.3C4.6,2.6,4.6,2.5,4.5,2.5L2.8,4.8L2.5,4.6l2-2.7L4.6,2
				c0.2,0.2,0.3,0.3,0.5,0.5l0.1,0.1L3.4,5.2z"/>
			<path id="Tracé_45" class="st0" d="M5.2,6.5L4.9,6.3l1.3-2L6,4.1l-1.3,2L4.3,5.9l1.6-2.4l0.2,0.2c0.2,0.2,0.3,0.3,0.5,0.5
				l0.1,0.1L5.2,6.5z"/>
			<path id="Tracé_46" class="st0" d="M7,7.8L6.7,7.5L7.8,6L7.6,5.9L6.4,7.4L6.1,7.1l1.4-1.9l0.2,0.1C7.9,5.6,8,5.7,8.2,5.9L8.4,6
				L7,7.8z"/>
			<path id="Tracé_47" class="st0" d="M8.8,9.1L8.5,8.9l0.9-1.2L9.2,7.4L8.2,8.7L7.9,8.5l1.2-1.6L9.3,7c0.2,0.1,0.4,0.3,0.5,0.4
				l0.2,0.1L8.8,9.1z"/>
			<path id="Tracé_48" class="st0" d="M10.6,10.4l-0.3-0.2L11,9.1l-0.2-0.2L10,10L9.7,9.8l1-1.4l0.2,0.1c0.2,0.1,0.4,0.3,0.5,0.4
				L11.6,9L10.6,10.4z"/>
		</g>
		<path id="Tracé_49" class="st0" d="M40.4,15.2c0,0-0.1,0-0.1,0c-1.8,0-3.3-1.6-3.3-3.4c0-1.8,1.6-3.3,3.4-3.3s3.3,1.6,3.3,3.4
			C43.6,13.7,42.2,15.1,40.4,15.2z M40.3,8.9c-1.6,0-2.9,1.3-2.9,2.8l0,0c-0.1,1.6,1.2,3,2.8,3h0.1c1.6,0,2.9-1.3,2.9-2.9
			c0-1.6-1.3-2.9-2.8-2.9H40.3z"/>
		<path id="Tracé_50" class="st0" d="M47.3,9.4"/>
		<path id="Tracé_51" class="st0" d="M54.6,23.4c-1.6,0-2.5,0-3.8-0.1c-0.8,0-1.8-0.1-3.1-0.1c-3.7-0.1-13.3-0.8-13.4-0.8l0-0.4
			c0.1,0,9.8,0.8,13.4,0.8c1.4,0,2.3,0.1,3.1,0.1c2.1,0.1,3.1,0.1,7.6,0c3.1,0,6.2-0.7,9-1.9c0.6-0.3,1.2-0.5,1.8-0.7l0.1,0.4
			c-0.6,0.2-1.2,0.4-1.8,0.7c-2.9,1.3-6,1.9-9.2,2C56.7,23.4,55.5,23.4,54.6,23.4z"/>
		<path id="Tracé_52" class="st0" d="M69.3,20.5"/>
		<path id="Tracé_53" class="st0" d="M58.4,23.2"/>
	</g>
	<g id="Groupe_4" transform="translate(2039.042 1511.447)">
		<path id="Tracé_54" class="st0" d="M7.6,16.2c0.8-1,2.2-1.2,3.2-0.5c0-0.2,0.1-0.4,0.1-0.6l2.4-10.3c0-0.1,0-0.1,0.1-0.1
			c0,0,0.1,0,0.1,0c0,0,0.1,0.1,0.1,0.1L16,15.2c0.2,1.4,0.7,2.7,1.4,3.9c0.1,0.1,0.2,0.2,0.3,0.3c0.1,0.1,0.2,0.2,0.3,0.3
			c0.2,0.2,0.5,0.3,0.7,0.3c0.3-1.1,0.6-2.2,0.9-3.2h0c-0.1,0-0.1,0-0.1-0.1l-3-12.1C16.4,3.6,16,2.8,15.4,2c-1.1-0.9-2.7-0.9-3.7,0
			c-0.6,0.7-1.1,1.6-1.2,2.5l-3,11.9C7.5,16.4,7.5,16.3,7.6,16.2z"/>
		<path id="Tracé_55" class="st0" d="M22.3,12.9c0.6,0,1.2,0.2,1.6,0.7l2.9-11.4C27,1.7,27,1.1,26.7,0.6c-0.3-0.4-0.9-0.7-1.4-0.6
			c-0.7-0.1-1.4,0.4-1.5,1.2l-3.3,13C20.7,13.4,21.5,12.9,22.3,12.9z"/>
		<path id="Tracé_56" class="st0" d="M3.4,15c0.3,1.4,0.8,2.8,1.5,4.1C5,19.1,5,19.2,5.1,19.3c0.3,0.1,0.6,0.3,0.8,0.6
			C6.1,20,6.3,20,6.6,20.1c0.1-0.2,0.2-0.4,0.4-0.5c0.1-0.1,0.2-0.1,0.3-0.2C7,19,6.9,18.5,6.9,18.1c0-0.5,0.1-0.9,0.3-1.3
			c0,0-0.1,0-0.1-0.1L3.1,1C3,0.7,2.9,0.4,2.6,0.3C2.4,0.1,2,0,1.7,0C1.2,0,0.6,0.2,0.3,0.6C0,1.1-0.1,1.7,0.1,2.3L3.4,15z"/>
	</g>
</g>
</svg>
